# xmcd CD database file
#
# Track frame offsets:
#	150
#	17355
#	33473
#	44997
#	58427
#	73748
#	90079
#	107211
#	126325
#	143422
#	155768
#	174255
#	188646
#	205290
#	217514
#
# Disc length: 3408 seconds
#
# Revision: 0
# Processed by: cddbd v1.5.2PL0 Copyright (c) Steve Scherf et al.
# Submitted via: CDex 1.51
#
DISCID=d00d4e0f
DTITLE=TheTwang - Twang 'em High
DYEAR=2007
DGENRE=Country
TTITLE0=Jumping Jack Flash
TTITLE1=You're Beautiful
TTITLE2=Another Brick In The Wall,Part 2
TTITLE3=Foxy Lady
TTITLE4=Fight For Your Right
TTITLE5=Get It On
TTITLE6=Your Song
TTITLE7=Crazy
TTITLE8=Let Me Entertain You
TTITLE9=Whole Lotta Love
TTITLE10=I Just Can't Get Enough
TTITLE11=Still Loving You
TTITLE12=The One I Love
TTITLE13=Zombie
TTITLE14=unknown
EXTD=YEAR: 2007
EXTT0=
EXTT1=
EXTT2=
EXTT3=
EXTT4=
EXTT5=
EXTT6=
EXTT7=
EXTT8=
EXTT9=
EXTT10=
EXTT11=
EXTT12=
EXTT13=
EXTT14=
PLAYORDER=
